<svg width="107" height="104" viewBox="0 0 107 104" fill="none" xmlns="http://www.w3.org/2000/svg">
<path d="M36.2518 12.9145C41.1935 -4.30484 65.5943 -4.30484 70.536 12.9145C72.7938 20.7817 80.1168 26.1021 88.2966 25.8183C106.2 25.1971 113.74 48.4036 98.891 58.4245C92.1066 63.0029 89.3094 71.6116 92.1071 79.3033C98.2304 96.1387 78.4898 110.481 64.3705 99.4551C57.9198 94.4175 48.8681 94.4175 42.4173 99.4551C28.2981 110.481 8.55745 96.1387 14.6808 79.3033C17.4784 71.6116 14.6813 63.0029 7.89686 58.4245C-6.95264 48.4036 0.587622 25.1971 18.4913 25.8183C26.6711 26.1021 33.994 20.7817 36.2518 12.9145Z" fill="#7C71ED"/>
</svg>
