<svg width="38" height="38" viewBox="0 0 38 38" fill="none" xmlns="http://www.w3.org/2000/svg">
<path d="M0 9.5C0 6.87665 2.12665 4.75 4.75 4.75H33.25C35.8734 4.75 38 6.87665 38 9.5V28.5C38 31.1234 35.8734 33.25 33.25 33.25H4.75C2.12665 33.25 0 31.1234 0 28.5V9.5ZM4.75 7.125C3.43832 7.125 2.375 8.18832 2.375 9.5V10.0151L19 19.9901L35.625 10.0151V9.5C35.625 8.18832 34.5617 7.125 33.25 7.125H4.75ZM35.625 12.7849L24.4433 19.4939L35.625 26.3749V12.7849ZM35.5448 29.1142L22.1488 20.8705L19 22.7599L15.8512 20.8705L2.45519 29.1142C2.72589 30.1282 3.65073 30.875 4.75 30.875H33.25C34.3493 30.875 35.2741 30.1282 35.5448 29.1142ZM2.375 26.3749L13.5567 19.4939L2.375 12.7849V26.3749Z" fill="black"/>
</svg>
