<svg width="40" height="40" viewBox="0 0 40 40" fill="none" xmlns="http://www.w3.org/2000/svg">
<path d="M11.6351 7.5C12.7877 7.5 13.8524 7.58781 14.8293 7.85125C15.8062 8.02687 16.6075 8.3891 17.321 8.82816C18.0344 9.26722 18.5613 9.89288 18.9235 10.6942C19.2748 11.4955 19.4614 12.4724 19.4614 13.5371C19.4614 14.7774 19.198 15.8422 18.5723 16.6435C18.0344 17.4447 17.1563 18.1582 16.0806 18.6851C17.5954 19.1241 18.7479 19.9254 19.4504 20.9902C20.1529 22.0549 20.603 23.383 20.603 24.8978C20.603 26.1382 20.3395 27.2029 19.8895 28.092C19.4504 28.9811 18.7369 29.7824 17.9357 30.3092C17.1344 30.8471 16.1575 31.2861 15.0927 31.5496C14.028 31.813 12.9633 31.9886 11.8986 31.9886L0 32.0106V7.5H11.6351ZM10.9216 17.4447C11.8986 17.4447 12.6998 17.1813 13.3145 16.7313C13.9292 16.2812 14.2036 15.4909 14.2036 14.514C14.2036 13.9762 14.1158 13.4493 13.9402 13.098C13.7646 12.7468 13.5011 12.4724 13.1389 12.2089C12.7877 12.0333 12.4254 11.8577 11.9864 11.7699C11.5473 11.6821 11.0973 11.6821 10.5704 11.6821H5.42241V17.4557C5.42241 17.4447 10.9216 17.4447 10.9216 17.4447ZM11.1851 27.9273C11.7229 27.9273 12.2498 27.8395 12.6998 27.7517C13.1389 27.6639 13.5889 27.4883 13.9402 27.2139C14.2914 26.9394 14.5659 26.676 14.8293 26.2369C15.0049 25.7979 15.1805 25.26 15.1805 24.6344C15.1805 23.394 14.8293 22.5049 14.1158 21.8793C13.4023 21.3414 12.4254 21.078 11.2729 21.078H5.42241V27.9163H11.1851V27.9273Z" fill="#201F20"/>
<path d="M28.3304 27.8395C29.0439 28.553 30.1086 28.9042 31.5246 28.9042C32.5015 28.9042 33.3906 28.6408 34.1041 28.1908C34.8176 27.6529 35.2566 27.126 35.4322 26.5882H39.779C39.0655 28.7176 38.0008 30.2324 36.5848 31.2093C35.1688 32.0984 33.4784 32.6253 31.4368 32.6253C30.0208 32.6253 28.7695 32.3618 27.617 31.9118C26.4644 31.4728 25.5753 30.8471 24.774 29.958C23.9727 29.1567 23.3581 28.1798 22.9958 27.0273C22.5568 25.8747 22.3702 24.6344 22.3702 23.2074C22.3702 21.8793 22.5458 20.6279 22.9958 19.4754C23.4459 18.3229 24.0606 17.346 24.8618 16.4569C25.6631 15.6556 26.64 14.9421 27.7048 14.503C28.8573 14.064 30.0098 13.7896 31.4368 13.7896C32.9515 13.7896 34.2797 14.053 35.4322 14.6787C36.5848 15.3043 37.4739 16.0068 38.1874 17.0715C38.9008 18.0484 39.4277 19.201 39.7899 20.4413C39.9656 21.6817 40.0534 22.933 39.9656 24.349H27.0901C27.0901 25.7979 27.617 27.126 28.3304 27.8395ZM33.9285 18.5095C33.3028 17.8838 32.3259 17.5326 31.1734 17.5326C30.3721 17.5326 29.7574 17.7082 29.2195 17.9716C28.6817 18.2351 28.3304 18.5973 27.9792 18.9485C27.6279 19.2998 27.4413 19.7498 27.3535 20.1889C27.2657 20.6279 27.1779 20.9902 27.1779 21.3414H35.1688C34.9932 20.0242 34.5431 19.1351 33.9285 18.5095ZM26.1132 9.19039H36.0579V11.5833H26.1132V9.19039Z" fill="#201F20"/>
</svg>
