<svg width="120" height="117" viewBox="0 0 120 117" fill="none" xmlns="http://www.w3.org/2000/svg">
<path d="M40.737 14.5123C46.2901 -4.83745 73.7099 -4.83745 79.263 14.5123C81.8001 23.3528 90.0291 29.3316 99.2209 29.0126C119.34 28.3146 127.813 54.3923 111.126 65.653C103.502 70.7978 100.359 80.4716 103.503 89.115C110.384 108.033 88.2008 124.15 72.3347 111.76C65.0858 106.099 54.9142 106.099 47.6653 111.76C31.7992 124.15 9.6162 108.033 16.4971 89.115C19.6409 80.4716 16.4977 70.7978 8.87389 65.653C-7.81284 54.3923 0.660324 28.3146 20.7791 29.0126C29.9709 29.3316 38.1999 23.3528 40.737 14.5123Z" fill="#FFD202"/>
<path d="M51.72 59.8L51.28 29H67.824L67.384 59.8L66.504 74.936H52.6L51.72 59.8ZM59.552 79.336C61.8987 79.336 63.8347 80.0987 65.36 81.624C66.944 83.1493 67.736 85.144 67.736 87.608C67.736 90.072 66.944 92.0667 65.36 93.592C63.8347 95.1173 61.8987 95.88 59.552 95.88C57.2053 95.88 55.24 95.088 53.656 93.504C52.072 91.92 51.28 89.9547 51.28 87.608C51.28 85.144 52.072 83.1493 53.656 81.624C55.24 80.0987 57.2053 79.336 59.552 79.336Z" fill="#201F20"/>
</svg>
