<svg width="108" height="105" viewBox="0 0 108 105" fill="none" xmlns="http://www.w3.org/2000/svg">
<path d="M36.8578 13.7314C41.7995 -3.48794 66.2003 -3.48794 71.142 13.7314C73.3998 21.5986 80.7227 26.919 88.9025 26.6352C106.806 26.014 114.346 49.2205 99.4969 59.2414C92.7125 63.8198 89.9154 72.4285 92.713 80.1202C98.8364 96.9556 79.0957 111.298 64.9765 100.272C58.5257 95.2344 49.474 95.2344 43.0233 100.272C28.904 111.298 9.1634 96.9556 15.2867 80.1202C18.0844 72.4285 15.2872 63.8198 8.50282 59.2414C-6.34668 49.2205 1.19358 26.014 19.0972 26.6352C27.277 26.919 34.6 21.5986 36.8578 13.7314Z" fill="#FFD202"/>
</svg>
