<svg width="135" height="165" viewBox="0 0 135 165" fill="none" xmlns="http://www.w3.org/2000/svg">
<path d="M5.65986 149.095C5.2779 151.731 7.03001 154.204 9.64393 154.718C18.0324 156.366 26.7066 157.569 35.6644 158.327C44.6474 159.088 53.9704 159.339 63.6312 159.086C67.4892 158.985 71.7507 158.75 76.4105 158.383C81.3442 158.124 86.2118 157.552 91.0119 156.665C95.896 155.762 100.543 154.473 104.944 152.788C104.985 152.773 105.025 152.757 105.065 152.741C109.687 150.833 113.683 148.266 116.942 144.98L116.957 144.966C120.961 140.896 124.074 135.286 126.488 128.483C129.021 121.346 130.065 112.876 129.812 103.224C129.633 96.3656 128.567 90.1254 126.517 84.5787C124.507 78.8012 121.093 73.8485 116.37 69.767C111.736 65.6545 105.829 62.583 98.8562 60.4119C91.8478 58.1097 83.3587 56.6308 73.4865 55.8916L73.4458 55.8887L62.2585 55.1428L62.2135 53.4261C66.7523 52.9152 72.0106 52.5762 78.0053 52.4192C85.7719 52.2158 96.3902 52.9878 109.965 54.8063C111.283 54.9829 112.617 54.6271 113.672 53.8176C114.727 53.0082 115.417 51.8117 115.587 50.4929L120.145 15.3085C120.481 12.7112 118.757 10.2944 116.191 9.76819C99.961 6.43903 82.004 5.0545 62.3507 5.56914C52.3727 5.83042 43.7175 6.8658 36.4652 8.75072L36.4459 8.75579C29.1437 10.6849 22.9454 13.9195 18.0717 18.6049C13.1562 23.2047 9.77305 29.1709 7.78946 36.2663C5.82224 43.1712 5.04171 51.5257 5.29484 61.1924C5.48218 68.3467 6.41561 74.7693 8.18152 80.3887C8.19588 80.4344 8.2109 80.4799 8.22657 80.5252C10.1835 86.1789 13.2608 91.0991 17.4533 95.2149C17.4936 95.2545 17.5346 95.2933 17.5762 95.3315C21.9683 99.3602 27.5343 102.349 34.0792 104.43C40.5943 106.501 48.4756 107.813 57.6273 108.45C57.6341 108.45 57.641 108.451 57.6478 108.451C57.6617 108.452 57.6756 108.453 57.6895 108.453L72.8498 109.318L72.9006 111.255C70.8968 111.516 68.7244 111.745 66.3807 111.941C62.3241 112.166 57.5937 112.35 52.1838 112.491C41.8482 112.762 30.1097 111.499 16.9315 108.628C15.5759 108.332 14.1585 108.614 13.0184 109.404C11.8782 110.194 11.1177 111.423 10.9188 112.796L5.65986 149.095Z" fill="#201F20" stroke="white" stroke-width="10" stroke-linejoin="round"/>
</svg>
