<svg width="74" height="74" viewBox="0 0 74 74" fill="none" xmlns="http://www.w3.org/2000/svg">
<path d="M20.3137 56.6309L22.1452 45.9651C26.0955 46.9347 29.6687 47.4195 32.8649 47.4195C34.4809 47.4195 35.8994 47.4016 37.1204 47.3657C38.3773 47.2938 39.4906 47.1861 40.4602 47.0424V43.8104L34.6425 43.3256C32.021 43.0742 29.8303 42.6433 28.0707 42.0328C26.311 41.4223 24.8925 40.5963 23.8151 39.5548C22.7737 38.4775 22.0195 37.2026 21.5527 35.7302C21.1217 34.2219 20.9063 32.4623 20.9063 30.4512C20.9063 27.686 21.1936 25.3877 21.7681 23.5562C22.3427 21.6887 23.2585 20.1984 24.5154 19.0851C25.7723 17.936 27.3883 17.1279 29.3635 16.6611C31.3745 16.1942 33.8165 15.9608 36.6895 15.9608C42.3995 15.9608 47.5708 16.4995 52.2034 17.5768L50.5873 27.9194C46.5652 27.273 43.3511 26.9498 40.945 26.9498C38.5389 26.9498 36.492 27.0576 34.8041 27.273V30.4512L39.4367 30.8822C42.2738 31.1694 44.6439 31.6543 46.5473 32.3366C48.4506 32.983 49.9768 33.8449 51.126 34.9222C52.3111 35.9996 53.1371 37.2744 53.6039 38.7468C54.1067 40.2192 54.3581 41.9071 54.3581 43.8104C54.3581 46.5397 53.999 48.838 53.2807 50.7054C52.5625 52.5729 51.7006 53.9914 50.6951 54.961C49.8691 55.7511 48.8456 56.3795 47.6246 56.8464C46.4036 57.2773 45.1108 57.6005 43.7462 57.816C42.3815 58.0314 40.9989 58.1571 39.5983 58.1931C38.2337 58.2649 36.9947 58.3008 35.8815 58.3008C33.0804 58.3008 30.387 58.1571 27.8013 57.8698C25.2157 57.5826 22.7198 57.1696 20.3137 56.6309Z" fill="#201F20"/>
</svg>
