<svg width="125" height="104" viewBox="0 0 125 104" fill="none" xmlns="http://www.w3.org/2000/svg">
<path d="M36.2518 12.9145C41.1935 -4.30484 65.5943 -4.30484 70.536 12.9145C72.7938 20.7817 80.1168 26.1021 88.2966 25.8183C106.2 25.1971 113.74 48.4036 98.891 58.4245C92.1066 63.0029 89.3094 71.6116 92.1071 79.3033C98.2304 96.1387 78.4898 110.481 64.3705 99.4551C57.9198 94.4175 48.8681 94.4175 42.4173 99.4551C28.2981 110.481 8.55745 96.1387 14.6808 79.3033C17.4784 71.6116 14.6813 63.0029 7.89686 58.4245C-6.95264 48.4036 0.587622 25.1971 18.4913 25.8183C26.6711 26.1021 33.994 20.7817 36.2518 12.9145Z" fill="#FFD202"/>
<path d="M109.336 65.528C109.336 61.832 108.28 58.84 106.168 56.552C104.056 54.264 101.504 53.12 98.512 53.12C95.52 53.12 93.2027 54.0587 91.56 55.936C89.9173 57.7547 89.096 59.9253 89.096 62.448C89.096 64.912 89.8293 67.0533 91.296 68.872C92.7627 70.6907 94.728 71.6 97.192 71.6C98.4827 71.6 99.5973 71.3067 100.536 70.72C100.888 70.4267 101.064 70.1627 101.064 69.928C101.064 69.4 100.8 69.136 100.272 69.136C100.155 69.136 99.8907 69.2533 99.48 69.488C99.0693 69.7227 98.4533 69.84 97.632 69.84C96.8107 69.84 96.048 69.4293 95.344 68.608C94.64 67.7867 94.288 66.76 94.288 65.528C94.288 64.296 94.6987 63.24 95.52 62.36C96.4 61.4213 97.6027 60.952 99.128 60.952C100.653 60.952 101.944 61.568 103 62.8C104.056 63.9733 104.584 65.4987 104.584 67.376C104.584 69.1947 103.821 70.632 102.296 71.688C100.771 72.6853 99.0693 73.184 97.192 73.184C93.9653 73.184 91.4133 72.0987 89.536 69.928C87.7173 67.7573 86.808 65.176 86.808 62.184C86.808 58.0187 88.4213 54.5573 91.648 51.8C94.9333 49.0427 99.1867 47.4293 104.408 46.96C105.405 46.9013 106.725 46.8427 108.368 46.784C110.011 46.6667 111.301 46.5787 112.24 46.52C113.179 46.4027 114.293 46.256 115.584 46.08C116.933 45.904 117.96 45.6693 118.664 45.376C119.427 45.024 120.16 44.584 120.864 44.056C122.272 43.176 122.976 41.5627 122.976 39.216C122.976 36.8693 122.213 35.0213 120.688 33.672C119.221 32.264 117.491 31.56 115.496 31.56C114.557 31.56 113.648 31.824 112.768 32.352C111.947 32.8213 111.536 33.32 111.536 33.848C111.536 34.376 111.8 34.64 112.328 34.64C112.563 34.64 112.856 34.4347 113.208 34.024C113.619 33.5547 114.352 33.32 115.408 33.32C116.464 33.32 117.373 33.76 118.136 34.64C118.957 35.52 119.368 36.6053 119.368 37.896C119.368 39.128 118.899 40.2133 117.96 41.152C117.021 42.0907 115.789 42.56 114.264 42.56C112.739 42.56 111.419 42.0027 110.304 40.888C109.248 39.7147 108.72 38.248 108.72 36.488C108.72 34.728 109.424 33.2027 110.832 31.912C112.24 30.6213 114 29.976 116.112 29.976C118.283 29.976 120.248 30.8853 122.008 32.704C123.768 34.464 124.648 36.752 124.648 39.568C124.648 42.384 123.973 44.7307 122.624 46.608C121.275 48.4853 119.632 49.8053 117.696 50.568C113.765 52.2107 110.187 53.032 106.96 53.032H104.936C108.925 55.9653 110.92 59.808 110.92 64.56C110.92 69.2533 109.101 73.3013 105.464 76.704C101.827 80.048 96.7227 81.72 90.152 81.72C83.64 81.72 78.6533 79.9307 75.192 76.352C71.7307 72.7733 70 68.8427 70 64.56C70 60.2773 71.0853 56.728 73.256 53.912C75.4267 51.0373 78.0667 48.8667 81.176 47.4L81 46.52C75.6613 44.8773 72.992 41.0933 72.992 35.168C72.992 31.0027 74.576 27.6 77.744 24.96C80.9707 22.32 84.4907 21 88.304 21C92.176 21 95.432 21.9387 98.072 23.816C100.712 25.6347 102.032 28.2453 102.032 31.648C102.032 33.408 101.445 34.904 100.272 36.136C99.1573 37.3093 97.808 37.896 96.224 37.896C94.6987 37.896 93.4373 37.456 92.44 36.576C91.5013 35.6373 91.032 34.5227 91.032 33.232C91.032 31.8827 91.4133 30.768 92.176 29.888C92.9387 28.9493 93.8773 28.48 94.992 28.48C96.1067 28.48 96.9867 28.744 97.632 29.272C98.2773 29.7413 98.6293 30.2693 98.688 30.856C98.8053 31.4427 99.0987 31.736 99.568 31.736C100.096 31.736 100.36 31.472 100.36 30.944C100.36 28.8907 99.392 27.0427 97.456 25.4C95.5787 23.7573 93.4373 22.936 91.032 22.936C84.4027 22.936 81.088 26.984 81.088 35.08C81.088 37.896 81.704 40.3013 82.936 42.296C84.2267 44.232 86.0747 45.2 88.48 45.2C89.7707 45.2 91.2373 44.8773 92.88 44.232L93.76 43.968L94.2 45.552C88.6853 47.312 84.8133 49.3947 82.584 51.8C80.3547 54.1467 79.24 57.9307 79.24 63.152C79.24 68.3147 80.736 72.1573 83.728 74.68C86.72 77.144 90.592 78.376 95.344 78.376C98.8053 78.376 102.003 77.1733 104.936 74.768C107.869 72.304 109.336 69.224 109.336 65.528Z" fill="#201F20"/>
</svg>
