<svg width="55" height="61" viewBox="0 0 55 61" fill="none" xmlns="http://www.w3.org/2000/svg">
<path d="M39.336 44.528C39.336 40.832 38.28 37.84 36.168 35.552C34.056 33.264 31.504 32.12 28.512 32.12C25.52 32.12 23.2027 33.0587 21.56 34.936C19.9173 36.7547 19.096 38.9253 19.096 41.448C19.096 43.912 19.8293 46.0533 21.296 47.872C22.7627 49.6907 24.728 50.6 27.192 50.6C28.4827 50.6 29.5973 50.3067 30.536 49.72C30.888 49.4267 31.064 49.1627 31.064 48.928C31.064 48.4 30.8 48.136 30.272 48.136C30.1547 48.136 29.8907 48.2533 29.48 48.488C29.0693 48.7227 28.4533 48.84 27.632 48.84C26.8107 48.84 26.048 48.4293 25.344 47.608C24.64 46.7867 24.288 45.76 24.288 44.528C24.288 43.296 24.6987 42.24 25.52 41.36C26.4 40.4213 27.6027 39.952 29.128 39.952C30.6533 39.952 31.944 40.568 33 41.8C34.056 42.9733 34.584 44.4987 34.584 46.376C34.584 48.1947 33.8213 49.632 32.296 50.688C30.7707 51.6853 29.0693 52.184 27.192 52.184C23.9653 52.184 21.4133 51.0987 19.536 48.928C17.7173 46.7573 16.808 44.176 16.808 41.184C16.808 37.0187 18.4213 33.5573 21.648 30.8C24.9333 28.0427 29.1867 26.4293 34.408 25.96C35.4053 25.9013 36.7253 25.8427 38.368 25.784C40.0107 25.6667 41.3013 25.5787 42.24 25.52C43.1787 25.4027 44.2933 25.256 45.584 25.08C46.9333 24.904 47.96 24.6693 48.664 24.376C49.4267 24.024 50.16 23.584 50.864 23.056C52.272 22.176 52.976 20.5627 52.976 18.216C52.976 15.8693 52.2133 14.0213 50.688 12.672C49.2213 11.264 47.4907 10.56 45.496 10.56C44.5573 10.56 43.648 10.824 42.768 11.352C41.9467 11.8213 41.536 12.32 41.536 12.848C41.536 13.376 41.8 13.64 42.328 13.64C42.5627 13.64 42.856 13.4347 43.208 13.024C43.6187 12.5547 44.352 12.32 45.408 12.32C46.464 12.32 47.3733 12.76 48.136 13.64C48.9573 14.52 49.368 15.6053 49.368 16.896C49.368 18.128 48.8987 19.2133 47.96 20.152C47.0213 21.0907 45.7893 21.56 44.264 21.56C42.7387 21.56 41.4187 21.0027 40.304 19.888C39.248 18.7147 38.72 17.248 38.72 15.488C38.72 13.728 39.424 12.2027 40.832 10.912C42.24 9.62133 44 8.976 46.112 8.976C48.2827 8.976 50.248 9.88533 52.008 11.704C53.768 13.464 54.648 15.752 54.648 18.568C54.648 21.384 53.9733 23.7307 52.624 25.608C51.2747 27.4853 49.632 28.8053 47.696 29.568C43.7653 31.2107 40.1867 32.032 36.96 32.032H34.936C38.9253 34.9653 40.92 38.808 40.92 43.56C40.92 48.2533 39.1013 52.3013 35.464 55.704C31.8267 59.048 26.7227 60.72 20.152 60.72C13.64 60.72 8.65333 58.9307 5.192 55.352C1.73067 51.7733 0 47.8427 0 43.56C0 39.2773 1.08533 35.728 3.256 32.912C5.42667 30.0373 8.06667 27.8667 11.176 26.4L11 25.52C5.66133 23.8773 2.992 20.0933 2.992 14.168C2.992 10.0027 4.576 6.6 7.744 3.96C10.9707 1.32 14.4907 0 18.304 0C22.176 0 25.432 0.938667 28.072 2.816C30.712 4.63466 32.032 7.24533 32.032 10.648C32.032 12.408 31.4453 13.904 30.272 15.136C29.1573 16.3093 27.808 16.896 26.224 16.896C24.6987 16.896 23.4373 16.456 22.44 15.576C21.5013 14.6373 21.032 13.5227 21.032 12.232C21.032 10.8827 21.4133 9.768 22.176 8.888C22.9387 7.94933 23.8773 7.48 24.992 7.48C26.1067 7.48 26.9867 7.744 27.632 8.272C28.2773 8.74133 28.6293 9.26933 28.688 9.856C28.8053 10.4427 29.0987 10.736 29.568 10.736C30.096 10.736 30.36 10.472 30.36 9.944C30.36 7.89067 29.392 6.04267 27.456 4.4C25.5787 2.75733 23.4373 1.936 21.032 1.936C14.4027 1.936 11.088 5.984 11.088 14.08C11.088 16.896 11.704 19.3013 12.936 21.296C14.2267 23.232 16.0747 24.2 18.48 24.2C19.7707 24.2 21.2373 23.8773 22.88 23.232L23.76 22.968L24.2 24.552C18.6853 26.312 14.8133 28.3947 12.584 30.8C10.3547 33.1467 9.24 36.9307 9.24 42.152C9.24 47.3147 10.736 51.1573 13.728 53.68C16.72 56.144 20.592 57.376 25.344 57.376C28.8053 57.376 32.0027 56.1733 34.936 53.768C37.8693 51.304 39.336 48.224 39.336 44.528Z" fill="#201F20"/>
</svg>
